<?xml version="1.0" encoding="UTF-8"?>
<svg id="Calque_2" data-name="Calque 2" xmlns="http://www.w3.org/2000/svg" viewBox="0 0 485.86 313.93">
  <defs>
    <style>
      .cls-1 {
        fill: #fff;
      }

      .cls-2 {
        opacity: .4;
      }

      .cls-3 {
        fill: #310099;
      }
    </style>
  </defs>
  <g id="Calque_1-2" data-name="Calque 1">
    <g>
      <g class="cls-2">
        <path class="cls-3" d="M126.32,291.14c-1.76-.41.42-3.4,3.46-5.7l117.3-85.74c8.08-5.46,12.44-5.82,17.22-5.93,5.54-21.11,64.52-59.64,110.38-71.91,28.3-7.57,41.32-2.27,33.16,12.63-.53.96-4.3,5.85-3.44,5.69,42.97-21.93,81.2-28.78,81.45-13.6.26,16.11-42.87,48.91-88.43,67.19,2.38.52,6.16-.49,4.63,2.28-.17.31-1.57,2.15-1.75,2.28l-23.4,17.1h15.27l65.17-21c5.83-1.57,5.68,1.36.38,5.25l-117.35,85.77c-5.53,3.99-12.46,6.61-14.81,5.47l-8.11-21.22h-14.82l-23.4,17.1c-1.37,1-8.94,4.33-9.8,4.33h-23.02l-22.77,16.65c-2.05,1.5-7.86,4.3-9.89,4.57l-89.46.23c-1.78.37-.75-2.61.37-3.43l23.71-17.33.25-.68h-22.34ZM369.46,161.64c24.45-17.87,29.78-32.36,11.92-32.36s-52.16,14.49-76.61,32.36c-24.45,17.87-29.78,32.36-11.92,32.36s52.16-14.49,76.61-32.36ZM444.96,161.65c24.46-17.88,29.8-32.37,11.93-32.37s-52.18,14.49-76.63,32.37c-24.46,17.88-29.8,32.37-11.93,32.37s52.18-14.49,76.63-32.37ZM339.68,194l5.64-10.95-11.68,5.69-11.74,5.26h17.78ZM380.32,204.94h-129.47l-102.95,75.25h129.47l102.95-75.25ZM433.97,209.05l-47.26,15.04-49.27,35.83-1.37,1.35,6.18,14.82,91.72-67.04ZM372.43,226.38h-10.49l-44.3,32.38h10.49l44.3-32.38ZM235.51,291.14h-75.68l-14.97,10.95h75.68l14.97-10.95Z"/>
        <path class="cls-3" d="M380.32,204.94l-102.95,75.25h-129.47l102.95-75.25h129.47ZM176.8,268.18c-.18.55.3.87.55,1.21l97.73.33c2.85-.08,7.23-1.48,11.63-4.33,18.57-14.36,43.23-30.61,61.21-44.74,4.45-3.49,4.43-4.92,1.46-5.24h-95.31c-3.32-.09-8.58,1.68-13.78,5.24-20.49,14.03-40.06,30.03-60.56,44.27-1.31,1.01-2.71,2.59-2.92,3.25Z"/>
        <path class="cls-3" d="M444.96,161.65c-24.46,17.88-58.77,32.37-76.63,32.37s-12.53-14.49,11.93-32.37c24.46-17.88,58.77-32.37,76.63-32.37s12.53,14.49-11.93,32.37ZM434.22,161.64c16.31-11.92,19.87-21.59,7.96-21.59s-34.81,9.67-51.12,21.59-19.87,21.59-7.96,21.59,34.81-9.67,51.12-21.59Z"/>
        <path class="cls-3" d="M369.46,161.64c-24.45,17.87-58.75,32.36-76.61,32.36s-12.52-14.49,11.92-32.36c24.45-17.87,58.75-32.36,76.61-32.36s12.52,14.49-11.92,32.36ZM358.71,161.64c16.32-11.93,19.88-21.6,7.96-21.6s-34.82,9.67-51.14,21.6c-16.32,11.93-19.88,21.6-7.96,21.6s34.82-9.67,51.14-21.6Z"/>
        <polygon class="cls-3" points="433.97 209.05 342.26 276.09 336.08 261.27 337.45 259.92 386.72 224.09 433.97 209.05"/>
        <polygon class="cls-3" points="235.51 291.14 220.53 302.08 144.86 302.08 159.83 291.14 235.51 291.14"/>
        <polygon class="cls-3" points="372.43 226.38 328.13 258.76 317.64 258.76 361.94 226.38 372.43 226.38"/>
        <polygon class="cls-3" points="339.68 194 321.9 194 333.64 188.74 345.32 183.05 339.68 194"/>
        <path class="cls-3" d="M176.8,268.18c.21-.66,1.61-2.24,2.92-3.25,20.5-14.25,40.07-30.24,60.56-44.27,5.2-3.56,10.46-5.33,13.78-5.24h95.31c2.97.32,2.98,1.75-1.46,5.24-17.98,14.13-42.63,30.38-61.21,44.74-4.4,2.85-8.78,4.25-11.63,4.33l-97.73-.33c-.25-.34-.72-.67-.55-1.21ZM243.41,226.38l-44.3,32.38h86.16l44.3-32.38h-86.16Z"/>
        <path class="cls-3" d="M434.22,161.64c-16.31,11.92-39.2,21.59-51.12,21.59s-8.36-9.67,7.96-21.59,39.2-21.59,51.12-21.59,8.36,9.67-7.96,21.59ZM423.41,161.64c8.15-5.96,9.93-10.79,3.97-10.79s-17.39,4.83-25.54,10.79-9.93,10.79-3.97,10.79,17.39-4.83,25.54-10.79Z"/>
        <path class="cls-3" d="M358.71,161.64c-16.32,11.93-39.21,21.6-51.14,21.6s-8.36-9.67,7.96-21.6c16.32-11.93,39.21-21.6,51.14-21.6s8.36,9.67-7.96,21.6ZM347.87,161.66c8.14-5.95,9.91-10.77,3.97-10.77s-17.36,4.82-25.49,10.77-9.91,10.77-3.97,10.77,17.36-4.82,25.49-10.77Z"/>
        <polygon class="cls-3" points="243.41 226.38 329.57 226.38 285.27 258.76 199.11 258.76 243.41 226.38"/>
        <path class="cls-3" d="M423.41,161.64c-8.15,5.96-19.58,10.79-25.54,10.79s-4.17-4.83,3.97-10.79,19.58-10.79,25.54-10.79,4.17,4.83-3.97,10.79Z"/>
        <path class="cls-3" d="M347.87,161.66c-8.14,5.95-19.55,10.77-25.49,10.77s-4.17-4.82,3.97-10.77,19.55-10.77,25.49-10.77,4.17,4.82-3.97,10.77Z"/>
      </g>
      <g>
        <path class="cls-3" d="M15.3,279.21c-3.77-.67-6.84-5.49-7-9.21v-138.61c.99-8.83,7.22-9.42,14.74-9.58C-14.7,87.69-4.57,25.39,42.44,5.55c29.01-12.24,61.78-3.66,81.54,20.42,1.27,1.55,5.98,9.45,7.02,9.19C151.95-.28,198.62-11.35,232.58,13.18c36.06,26.05,38.86,79.06,5.66,108.63,5,.84,8.89-.79,12.52,3.68.41.5,2.21,3.47,2.21,3.68v27.65h24.69l58.92-33.95c5.96-2.53,12.19,2.2,12.23,8.48v138.67c-.11,6.46-5.51,10.69-11.85,8.84l-60.04-34.3h-23.95v27.65c0,1.62-4.86,7-6.26,7h-37.22v26.91c0,2.42-3.2,6.95-5.88,7.39l-144.12.37c-2.06.6-6.98-4.22-6.98-5.55v-28.02l-1.11-1.11H15.3ZM121.95,69.86c0-28.89-23.41-52.31-52.29-52.31s-52.29,23.42-52.29,52.31,23.41,52.31,52.29,52.31,52.29-23.42,52.29-52.31ZM244.02,69.87c0-28.9-23.42-52.33-52.31-52.33s-52.31,23.43-52.31,52.33,23.42,52.33,52.31,52.33,52.31-23.43,52.31-52.33ZM145.37,122.17l-15.1-17.7-6.29,9.2-7.35,8.5h28.74ZM235.29,139.87H25.98v121.65h209.3v-121.65ZM331.1,146.5l-43.13,24.32-.4,57.93.77,2.18,42.75,23.95v-108.38ZM269.93,174.52h-16.95v52.35h16.95v-52.35ZM191.8,279.21h-122.34v17.69h122.34v-17.69Z"/>
        <path class="cls-1" d="M235.29,139.87v121.65H25.98v-121.65h209.3ZM46.13,242.1c.92.88,2.4,1.41,3.57,1.96l158.72.53c4.42-.13,8.4-2.4,9.22-7-1.73-23.21,2.19-49.48,0-72.32-.54-5.65-3.72-7.96-9.22-8.47H54.32c-5.56-.14-10.16,2.71-10.69,8.47-2.09,22.69,1.65,48.54.01,71.57.11,1.63,1.36,4.19,2.48,5.26Z"/>
        <path class="cls-1" d="M244.02,69.87c0,28.9-23.42,52.33-52.31,52.33s-52.31-23.43-52.31-52.33,23.42-52.33,52.31-52.33,52.31,23.43,52.31,52.33ZM226.64,69.86c0-19.28-15.62-34.9-34.89-34.9s-34.89,15.63-34.89,34.9,15.62,34.9,34.89,34.9,34.89-15.63,34.89-34.9Z"/>
        <path class="cls-1" d="M121.95,69.86c0,28.89-23.41,52.31-52.29,52.31s-52.29-23.42-52.29-52.31,23.41-52.31,52.29-52.31,52.29,23.42,52.29,52.31ZM104.58,69.87c0-19.28-15.63-34.92-34.9-34.92s-34.9,15.63-34.9,34.92,15.63,34.92,34.9,34.92,34.9-15.63,34.9-34.92Z"/>
        <polygon class="cls-1" points="331.1 146.5 331.1 254.88 288.34 230.93 287.57 228.75 287.97 170.82 331.1 146.5"/>
        <rect class="cls-1" x="69.46" y="279.21" width="122.34" height="17.69"/>
        <rect class="cls-1" x="252.97" y="174.52" width="16.95" height="52.35"/>
        <polygon class="cls-1" points="145.37 122.17 116.63 122.17 123.98 113.67 130.27 104.47 145.37 122.17"/>
        <path class="cls-3" d="M46.13,242.1c-1.12-1.07-2.37-3.63-2.48-5.26,1.63-23.03-2.1-48.88-.01-71.57.53-5.76,5.13-8.61,10.69-8.48h154.09c5.5.52,8.68,2.82,9.22,8.47,2.18,22.84-1.73,49.11,0,72.32-.81,4.6-4.79,6.87-9.22,7l-158.72-.53c-1.16-.55-2.64-1.08-3.57-1.96ZM61.36,174.52v52.35h139.29v-52.35H61.36Z"/>
        <path class="cls-3" d="M226.64,69.86c0,19.28-15.62,34.9-34.89,34.9s-34.89-15.63-34.89-34.9,15.62-34.9,34.89-34.9,34.89,15.63,34.89,34.9ZM209.17,69.86c0-9.63-7.8-17.44-17.43-17.44s-17.43,7.81-17.43,17.44,7.8,17.44,17.43,17.44,17.43-7.81,17.43-17.44Z"/>
        <path class="cls-3" d="M104.58,69.87c0,19.28-15.63,34.92-34.9,34.92s-34.9-15.63-34.9-34.92,15.63-34.92,34.9-34.92,34.9,15.63,34.9,34.92ZM87.08,69.89c0-9.61-7.79-17.41-17.4-17.41s-17.4,7.79-17.4,17.41,7.79,17.41,17.4,17.41,17.4-7.79,17.4-17.41Z"/>
        <rect class="cls-1" x="61.36" y="174.52" width="139.29" height="52.35"/>
        <ellipse class="cls-1" cx="191.74" cy="69.86" rx="17.43" ry="17.44"/>
        <ellipse class="cls-1" cx="69.68" cy="69.89" rx="17.4" ry="17.41"/>
      </g>
    </g>
  </g>
</svg>