<?xml version="1.0" encoding="UTF-8"?>
<svg id="Calque_2" data-name="Calque 2" xmlns="http://www.w3.org/2000/svg" viewBox="0 0 485.59 314.14">
  <defs>
    <style>
      .cls-1 {
        fill: #fff;
      }

      .cls-2 {
        opacity: .4;
      }
    </style>
  </defs>
  <g id="Calque_1-2" data-name="Calque 1">
    <g>
      <g class="cls-2">
        <path d="M125.26,291.39c-1.76-.42.43-3.39,3.49-5.68l117.71-85.18c8.11-5.42,12.47-5.77,17.25-5.84,5.64-21.08,64.8-59.33,110.73-71.38,28.34-7.44,41.33-2.07,33.09,12.79-.53.96-4.32,5.82-3.47,5.67,43.07-21.73,81.34-28.39,81.51-13.21.18,16.12-43.1,48.7-88.75,66.77,2.38.53,6.17-.46,4.62,2.3-.17.31-1.58,2.14-1.76,2.27l-23.48,16.99,15.27.07,65.27-20.69c5.84-1.54,5.68,1.39.36,5.25l-117.75,85.21c-5.55,3.97-12.49,6.55-14.83,5.4l-8.01-21.26-14.82-.07-23.48,16.99c-1.38,1-8.96,4.29-9.82,4.29l-23.02-.11-22.85,16.54c-2.06,1.49-7.88,4.26-9.91,4.53l-89.46-.2c-1.78.36-.74-2.61.39-3.43l23.79-17.22.26-.68-22.34-.11ZM369.01,163.06c24.53-17.75,29.94-32.21,12.08-32.3-17.86-.09-52.23,14.24-76.76,31.99s-29.94,32.21-12.08,32.3,52.23-14.24,76.76-31.99ZM444.52,163.43c24.54-17.76,29.95-32.22,12.08-32.31-17.87-.09-52.25,14.24-76.79,32-24.54,17.76-29.95,32.22-12.08,32.31s52.25-14.24,76.79-32ZM339.08,195.27l5.69-10.92-11.71,5.64-11.76,5.2,17.78.09ZM379.67,206.41l-129.47-.62-103.31,74.76,129.47.62,103.31-74.76ZM433.3,210.77l-47.33,14.82-49.44,35.6-1.37,1.34,6.11,14.85,92.04-66.6ZM371.67,227.81l-10.49-.05-44.45,32.17,10.49.05,44.45-32.17ZM234.45,291.91l-75.67-.36-15.03,10.87,75.67.36,15.03-10.87Z"/>
        <path d="M379.67,206.41l-103.31,74.76-129.47-.62,103.31-74.76,129.47.62ZM175.85,268.68c-.18.55.29.87.54,1.22l97.73.79c2.85-.07,7.23-1.45,11.65-4.28,18.64-14.27,43.37-30.4,61.42-44.44,4.46-3.47,4.46-4.9,1.49-5.23l-95.31-.46c-3.32-.1-8.59,1.64-13.81,5.18-20.56,13.94-40.2,29.83-60.77,43.98-1.32,1-2.72,2.58-2.93,3.24Z"/>
        <path d="M444.52,163.43c-24.54,17.76-58.92,32.09-76.79,32s-12.46-14.55,12.08-32.31c24.54-17.76,58.92-32.09,76.79-32,17.87.09,12.46,14.55-12.08,32.31ZM433.78,163.36c16.37-11.85,19.98-21.49,8.06-21.55-11.92-.06-34.85,9.5-51.22,21.35-16.37,11.85-19.98,21.49-8.06,21.55,11.92.06,34.85-9.5,51.22-21.35Z"/>
        <path d="M369.01,163.06c-24.53,17.75-58.9,32.07-76.76,31.99s-12.46-14.55,12.08-32.3,58.9-32.07,76.76-31.99c17.86.09,12.46,14.55-12.08,32.3ZM358.27,163.01c16.38-11.85,19.98-21.5,8.06-21.56-11.92-.06-34.86,9.5-51.24,21.35-16.38,11.85-19.98,21.5-8.06,21.56s34.86-9.5,51.24-21.35Z"/>
        <polygon points="433.3 210.77 341.27 277.38 335.16 262.53 336.54 261.19 385.98 225.59 433.3 210.77"/>
        <polygon points="234.45 291.91 219.42 302.79 143.74 302.43 158.77 291.55 234.45 291.91"/>
        <polygon points="371.67 227.81 327.22 259.98 316.74 259.93 361.19 227.76 371.67 227.81"/>
        <polygon points="339.08 195.27 321.31 195.19 333.07 189.99 344.78 184.35 339.08 195.27"/>
        <path d="M175.85,268.68c.22-.66,1.62-2.24,2.93-3.24,20.57-14.15,40.21-30.04,60.77-43.98,5.22-3.54,10.49-5.28,13.81-5.18l95.31.46c2.97.33,2.97,1.76-1.49,5.23-18.05,14.04-42.78,30.17-61.42,44.44-4.41,2.83-8.8,4.21-11.65,4.28l-97.73-.79c-.25-.34-.72-.67-.54-1.22ZM242.66,227.19l-44.45,32.17,86.16.41,44.45-32.17-86.16-.41Z"/>
        <path d="M433.78,163.36c-16.37,11.85-39.3,21.4-51.22,21.35-11.92-.06-8.31-9.71,8.06-21.55,16.37-11.85,39.3-21.4,51.22-21.35,11.92.06,8.31,9.71-8.06,21.55ZM422.97,163.32c8.18-5.92,9.98-10.74,4.03-10.77-5.95-.03-17.41,4.75-25.59,10.66-8.18,5.92-9.98,10.74-4.03,10.77,5.95.03,17.41-4.75,25.59-10.66Z"/>
        <path d="M358.27,163.01c-16.38,11.85-39.32,21.41-51.24,21.35s-8.31-9.71,8.06-21.56c16.38-11.85,39.32-21.41,51.24-21.35,11.92.06,8.31,9.71-8.06,21.56ZM347.42,162.97c8.16-5.91,9.96-10.72,4.02-10.75s-17.38,4.74-25.54,10.65c-8.16,5.91-9.96,10.72-4.02,10.75s17.38-4.74,25.54-10.65Z"/>
        <polygon points="242.66 227.19 328.82 227.6 284.37 259.77 198.21 259.36 242.66 227.19"/>
        <path d="M422.97,163.32c-8.18,5.92-19.63,10.69-25.59,10.66-5.95-.03-4.15-4.85,4.03-10.77,8.18-5.92,19.63-10.69,25.59-10.66,5.95.03,4.15,4.85-4.03,10.77Z"/>
        <path d="M347.42,162.97c-8.16,5.91-19.6,10.67-25.54,10.65s-4.14-4.84,4.02-10.75c8.16-5.91,19.6-10.67,25.54-10.65s4.14,4.84-4.02,10.75Z"/>
      </g>
      <g>
        <path d="M14.3,278.94c-3.76-.69-6.81-5.52-6.96-9.25l.66-138.61c1.03-8.82,7.27-9.38,14.78-9.51C-14.78,87.27-4.36,25.02,42.75,5.41c29.06-12.1,61.8-3.37,81.44,20.81,1.27,1.56,5.94,9.48,6.97,9.23C152.29.1,199.01-10.75,232.85,13.95c35.94,26.22,38.48,79.25,5.14,108.65,4.99.86,8.89-.74,12.51,3.74.41.5,2.2,3.48,2.2,3.7l-.13,27.65,24.69.12,59.08-33.67c5.98-2.5,12.18,2.25,12.19,8.54l-.66,138.66c-.14,6.46-5.56,10.67-11.89,8.78l-59.87-34.59-23.95-.11-.13,27.65c0,1.62-4.9,6.98-6.3,6.97l-37.22-.18-.13,26.91c-.01,2.42-3.23,6.93-5.91,7.36l-144.12-.32c-2.07.59-6.96-4.26-6.96-5.58l.13-28.02-1.1-1.11-36.11-.17ZM121.95,70.1c.14-28.89-23.16-52.42-52.04-52.56-28.88-.14-52.4,23.17-52.54,52.06-.14,28.89,23.16,52.42,52.04,52.56s52.4-23.17,52.54-52.06ZM244.02,70.69c.14-28.9-23.17-52.44-52.05-52.58s-52.42,23.18-52.55,52.08c-.14,28.9,23.17,52.44,52.05,52.58s52.42-23.18,52.55-52.08ZM145.12,122.52l-15.02-17.77-6.34,9.17-7.39,8.46,28.74.14ZM234.95,140.65l-209.3-1-.58,121.65,209.3,1,.58-121.65ZM330.73,147.74l-43.24,24.11-.68,57.93.76,2.18,42.64,24.16.52-108.38ZM269.42,175.46l-16.95-.08-.25,52.35,16.95.08.25-52.35ZM190.8,279.78l-122.34-.58-.08,17.69,122.34.58.08-17.69Z"/>
        <path class="cls-1" d="M234.95,140.65l-.58,121.65-209.3-1,.58-121.65,209.3,1ZM45.31,241.97c.92.89,2.4,1.42,3.56,1.98l158.72,1.29c4.42-.11,8.41-2.36,9.25-6.96-1.62-23.22,2.42-49.47.35-72.32-.51-5.65-3.68-7.97-9.18-8.51l-154.09-.74c-5.55-.16-10.17,2.67-10.73,8.42-2.2,22.68,1.42,48.55-.33,71.57.11,1.63,1.34,4.2,2.45,5.27Z"/>
        <path class="cls-1" d="M244.02,70.69c-.14,28.9-23.67,52.21-52.55,52.08s-52.19-23.68-52.05-52.58c.14-28.9,23.67-52.21,52.55-52.08s52.19,23.68,52.05,52.58ZM226.64,70.59c.09-19.28-15.45-34.98-34.72-35.07-19.27-.09-34.96,15.46-35.06,34.74s15.45,34.98,34.72,35.07c19.27.09,34.96-15.46,35.06-34.74Z"/>
        <path class="cls-1" d="M121.95,70.1c-.14,28.89-23.66,52.19-52.54,52.06s-52.17-23.67-52.04-52.56c.14-28.89,23.66-52.19,52.54-52.06,28.88.14,52.17,23.67,52.04,52.56ZM104.58,70.02c.09-19.28-15.46-34.99-34.73-35.08s-34.98,15.47-35.07,34.75c-.09,19.28,15.46,34.99,34.73,35.08,19.28.09,34.98-15.47,35.07-34.75Z"/>
        <polygon class="cls-1" points="330.73 147.74 330.21 256.12 287.57 231.96 286.81 229.78 287.49 171.85 330.73 147.74"/>
        <rect class="cls-1" x="68.42" y="279.49" width="122.34" height="17.69" transform="translate(1.38 -.62) rotate(.27)"/>
        <rect class="cls-1" x="252.35" y="175.42" width="16.95" height="52.35" transform="translate(.97 -1.24) rotate(.27)"/>
        <polygon class="cls-1" points="145.12 122.52 116.38 122.38 123.77 113.92 130.11 104.75 145.12 122.52"/>
        <path d="M45.31,241.97c-1.11-1.07-2.35-3.64-2.45-5.27,1.74-23.02-1.87-48.89.33-71.57.56-5.75,5.17-8.59,10.73-8.42l154.09.74c5.5.54,8.67,2.86,9.18,8.51,2.07,22.85-1.97,49.1-.35,72.32-.84,4.6-4.83,6.85-9.25,6.96l-158.72-1.29c-1.16-.56-2.64-1.09-3.56-1.98ZM60.86,174.47l-.25,52.35,139.29.67.25-52.35-139.29-.67Z"/>
        <path d="M226.64,70.59c-.09,19.28-15.79,34.83-35.06,34.74-19.27-.09-34.81-15.79-34.72-35.07s15.79-34.83,35.06-34.74c19.27.09,34.81,15.79,34.72,35.07ZM209.17,70.52c.05-9.63-7.72-17.47-17.35-17.52-9.63-.05-17.47,7.72-17.51,17.35s7.72,17.47,17.35,17.52c9.63.05,17.47-7.72,17.51-17.35Z"/>
        <path d="M104.58,70.02c-.09,19.28-15.79,34.84-35.07,34.75-19.28-.09-34.83-15.8-34.73-35.08.09-19.28,15.79-34.84,35.07-34.75s34.83,15.8,34.73,35.08ZM87.08,69.96c.05-9.61-7.71-17.44-17.32-17.49s-17.44,7.71-17.48,17.32,7.71,17.44,17.32,17.49,17.44-7.71,17.48-17.32Z"/>
        <rect class="cls-1" x="60.73" y="174.8" width="139.29" height="52.35" transform="translate(.96 -.62) rotate(.27)"/>
        <ellipse class="cls-1" cx="191.74" cy="70.43" rx="17.44" ry="17.43" transform="translate(120.39 261.83) rotate(-89.73)"/>
        <ellipse class="cls-1" cx="69.68" cy="69.88" rx="17.41" ry="17.4" transform="translate(-.53 139.22) rotate(-89.73)"/>
      </g>
    </g>
  </g>
</svg>